<svg width="1000" height="96" viewBox="0 0 1000 96" fill="none" xmlns="http://www.w3.org/2000/svg">
<path d="M27.3636 94L0.272727 0.909088H25.1364L39.1818 61.9091H39.9545L56 0.909088H76.2727L92.3182 62.0455H93.0909L107.182 0.909088H132L104.955 94H83.2727L66.5 37.5455H65.7727L49 94H27.3636ZM163.523 54.1818V94H141.295V0.909088H162.795V37H163.568C165.144 32.697 167.72 29.3333 171.295 26.9091C174.902 24.4848 179.311 23.2727 184.523 23.2727C189.432 23.2727 193.705 24.3636 197.341 26.5455C200.977 28.697 203.795 31.7424 205.795 35.6818C207.826 39.6212 208.826 44.2273 208.795 49.5V94H186.568V53.8636C186.598 49.9848 185.629 46.9545 183.659 44.7727C181.689 42.5909 178.917 41.5 175.341 41.5C173.008 41.5 170.947 42.0152 169.159 43.0455C167.402 44.0455 166.023 45.4848 165.023 47.3636C164.053 49.2424 163.553 51.5151 163.523 54.1818ZM242.352 95.1818C237.898 95.1818 233.943 94.4394 230.489 92.9545C227.064 91.4394 224.352 89.1667 222.352 86.1364C220.383 83.0758 219.398 79.2424 219.398 74.6364C219.398 70.7576 220.08 67.4848 221.443 64.8182C222.807 62.1515 224.686 59.9848 227.08 58.3182C229.473 56.6515 232.231 55.3939 235.352 54.5455C238.473 53.6667 241.807 53.0758 245.352 52.7727C249.322 52.4091 252.519 52.0303 254.943 51.6364C257.367 51.2121 259.125 50.6212 260.216 49.8636C261.337 49.0758 261.898 47.9697 261.898 46.5455V46.3182C261.898 43.9848 261.095 42.1818 259.489 40.9091C257.883 39.6364 255.716 39 252.989 39C250.049 39 247.686 39.6364 245.898 40.9091C244.11 42.1818 242.973 43.9394 242.489 46.1818L221.989 45.4545C222.595 41.2121 224.155 37.4242 226.67 34.0909C229.216 30.7273 232.701 28.0909 237.125 26.1818C241.58 24.2424 246.928 23.2727 253.17 23.2727C257.625 23.2727 261.731 23.803 265.489 24.8636C269.246 25.8939 272.519 27.4091 275.307 29.4091C278.095 31.3788 280.246 33.803 281.761 36.6818C283.307 39.5606 284.08 42.8485 284.08 46.5455V94H263.17V84.2727H262.625C261.383 86.6364 259.792 88.6364 257.852 90.2727C255.943 91.9091 253.686 93.1364 251.08 93.9545C248.504 94.7727 245.595 95.1818 242.352 95.1818ZM249.216 80.6364C251.61 80.6364 253.761 80.1515 255.67 79.1818C257.61 78.2121 259.155 76.8788 260.307 75.1818C261.458 73.4545 262.034 71.4545 262.034 69.1818V62.5455C261.398 62.8788 260.625 63.1818 259.716 63.4545C258.837 63.7273 257.867 63.9848 256.807 64.2273C255.746 64.4697 254.655 64.6818 253.534 64.8636C252.413 65.0455 251.337 65.2121 250.307 65.3636C248.216 65.697 246.428 66.2121 244.943 66.9091C243.489 67.6061 242.367 68.5152 241.58 69.6364C240.822 70.7273 240.443 72.0303 240.443 73.5455C240.443 75.8485 241.261 77.6061 242.898 78.8182C244.564 80.0303 246.67 80.6364 249.216 80.6364ZM337.08 24.1818V40.5455H293.034V24.1818H337.08ZM302.261 7.45454H324.489V72.0455C324.489 73.4091 324.701 74.5152 325.125 75.3636C325.58 76.1818 326.231 76.7727 327.08 77.1364C327.928 77.4697 328.943 77.6364 330.125 77.6364C330.973 77.6364 331.867 77.5606 332.807 77.4091C333.777 77.2273 334.504 77.0758 334.989 76.9545L338.352 93C337.292 93.303 335.792 93.6818 333.852 94.1364C331.943 94.5909 329.655 94.8788 326.989 95C321.777 95.2424 317.307 94.6364 313.58 93.1818C309.883 91.697 307.049 89.3939 305.08 86.2727C303.14 83.1515 302.201 79.2273 302.261 74.5V7.45454ZM408.511 95.3182C401.148 95.3182 394.83 93.803 389.557 90.7727C384.314 87.7424 380.284 83.5303 377.466 78.1364C374.648 72.7121 373.239 66.4394 373.239 59.3182C373.239 52.1667 374.648 45.8939 377.466 40.5C380.314 35.0758 384.36 30.8485 389.602 27.8182C394.875 24.7879 401.163 23.2727 408.466 23.2727C414.92 23.2727 420.542 24.4394 425.33 26.7727C430.148 29.1061 433.905 32.4091 436.602 36.6818C439.33 40.9242 440.769 45.9091 440.92 51.6364H420.148C419.723 48.0606 418.511 45.2576 416.511 43.2273C414.542 41.197 411.966 40.1818 408.784 40.1818C406.208 40.1818 403.951 40.9091 402.011 42.3636C400.072 43.7879 398.557 45.9091 397.466 48.7273C396.405 51.5151 395.875 54.9697 395.875 59.0909C395.875 63.2121 396.405 66.697 397.466 69.5455C398.557 72.3636 400.072 74.5 402.011 75.9545C403.951 77.3788 406.208 78.0909 408.784 78.0909C410.845 78.0909 412.663 77.6515 414.239 76.7727C415.845 75.8939 417.163 74.6061 418.193 72.9091C419.223 71.1818 419.875 69.0909 420.148 66.6364H440.92C440.708 72.3939 439.269 77.4242 436.602 81.7273C433.966 86.0303 430.254 89.3788 425.466 91.7727C420.708 94.1364 415.057 95.3182 408.511 95.3182ZM471.977 95.1818C467.523 95.1818 463.568 94.4394 460.114 92.9545C456.689 91.4394 453.977 89.1667 451.977 86.1364C450.008 83.0758 449.023 79.2424 449.023 74.6364C449.023 70.7576 449.705 67.4848 451.068 64.8182C452.432 62.1515 454.311 59.9848 456.705 58.3182C459.098 56.6515 461.856 55.3939 464.977 54.5455C468.098 53.6667 471.432 53.0758 474.977 52.7727C478.947 52.4091 482.144 52.0303 484.568 51.6364C486.992 51.2121 488.75 50.6212 489.841 49.8636C490.962 49.0758 491.523 47.9697 491.523 46.5455V46.3182C491.523 43.9848 490.72 42.1818 489.114 40.9091C487.508 39.6364 485.341 39 482.614 39C479.674 39 477.311 39.6364 475.523 40.9091C473.735 42.1818 472.598 43.9394 472.114 46.1818L451.614 45.4545C452.22 41.2121 453.78 37.4242 456.295 34.0909C458.841 30.7273 462.326 28.0909 466.75 26.1818C471.205 24.2424 476.553 23.2727 482.795 23.2727C487.25 23.2727 491.356 23.803 495.114 24.8636C498.871 25.8939 502.144 27.4091 504.932 29.4091C507.72 31.3788 509.871 33.803 511.386 36.6818C512.932 39.5606 513.705 42.8485 513.705 46.5455V94H492.795V84.2727H492.25C491.008 86.6364 489.417 88.6364 487.477 90.2727C485.568 91.9091 483.311 93.1364 480.705 93.9545C478.129 94.7727 475.22 95.1818 471.977 95.1818ZM478.841 80.6364C481.235 80.6364 483.386 80.1515 485.295 79.1818C487.235 78.2121 488.78 76.8788 489.932 75.1818C491.083 73.4545 491.659 71.4545 491.659 69.1818V62.5455C491.023 62.8788 490.25 63.1818 489.341 63.4545C488.462 63.7273 487.492 63.9848 486.432 64.2273C485.371 64.4697 484.28 64.6818 483.159 64.8636C482.038 65.0455 480.962 65.2121 479.932 65.3636C477.841 65.697 476.053 66.2121 474.568 66.9091C473.114 67.6061 471.992 68.5152 471.205 69.6364C470.447 70.7273 470.068 72.0303 470.068 73.5455C470.068 75.8485 470.886 77.6061 472.523 78.8182C474.189 80.0303 476.295 80.6364 478.841 80.6364ZM549.523 54.1818V94H527.295V24.1818H548.432V37H549.205C550.75 32.7273 553.386 29.3788 557.114 26.9545C560.841 24.5 565.28 23.2727 570.432 23.2727C575.341 23.2727 579.598 24.3788 583.205 26.5909C586.841 28.7727 589.659 31.8333 591.659 35.7727C593.689 39.6818 594.689 44.2576 594.659 49.5V94H572.432V53.8636C572.462 49.9848 571.477 46.9545 569.477 44.7727C567.508 42.5909 564.765 41.5 561.25 41.5C558.917 41.5 556.856 42.0152 555.068 43.0455C553.311 44.0455 551.947 45.4848 550.977 47.3636C550.038 49.2424 549.553 51.5151 549.523 54.1818ZM648.966 94L630.784 24.1818H653.102L662.511 68.9091H663.102L673.193 24.1818H694.966L705.33 68.5909H705.92L715.057 24.1818H737.375L719.148 94H695.375L684.466 53.3182H683.693L672.784 94H648.966ZM777.432 95.3182C770.129 95.3182 763.826 93.8788 758.523 91C753.25 88.0909 749.189 83.9545 746.341 78.5909C743.523 73.197 742.114 66.7879 742.114 59.3636C742.114 52.1515 743.538 45.8485 746.386 40.4545C749.235 35.0303 753.25 30.8182 758.432 27.8182C763.614 24.7879 769.72 23.2727 776.75 23.2727C781.72 23.2727 786.265 24.0455 790.386 25.5909C794.508 27.1364 798.068 29.4242 801.068 32.4545C804.068 35.4848 806.402 39.2273 808.068 43.6818C809.735 48.1061 810.568 53.1818 810.568 58.9091V64.4545H749.886V51.5455H789.886C789.856 49.1818 789.295 47.0758 788.205 45.2273C787.114 43.3788 785.614 41.9394 783.705 40.9091C781.826 39.8485 779.659 39.3182 777.205 39.3182C774.72 39.3182 772.492 39.8788 770.523 41C768.553 42.0909 766.992 43.5909 765.841 45.5C764.689 47.3788 764.083 49.5151 764.023 51.9091V65.0455C764.023 67.8939 764.583 70.3939 765.705 72.5455C766.826 74.6667 768.417 76.3182 770.477 77.5C772.538 78.6818 774.992 79.2727 777.841 79.2727C779.811 79.2727 781.598 79 783.205 78.4545C784.811 77.9091 786.189 77.1061 787.341 76.0455C788.492 74.9848 789.356 73.6818 789.932 72.1364L810.341 72.7273C809.492 77.303 807.629 81.2879 804.75 84.6818C801.902 88.0455 798.159 90.6667 793.523 92.5455C788.886 94.3939 783.523 95.3182 777.432 95.3182ZM874.92 95C869.769 95 865.087 93.6667 860.875 91C856.663 88.3333 853.299 84.3333 850.784 79C848.269 73.6667 847.011 67.0455 847.011 59.1364C847.011 50.9242 848.314 44.1667 850.92 38.8636C853.527 33.5606 856.936 29.6364 861.148 27.0909C865.39 24.5455 869.951 23.2727 874.83 23.2727C878.496 23.2727 881.633 23.9091 884.239 25.1818C886.845 26.4242 888.996 28.0303 890.693 30C892.39 31.9697 893.678 34.0151 894.557 36.1364H895.011V0.909088H917.239V94H895.239V82.6818H894.557C893.617 84.8333 892.284 86.8485 890.557 88.7273C888.83 90.6061 886.663 92.1212 884.057 93.2727C881.481 94.4242 878.436 95 874.92 95ZM882.648 77.6818C885.345 77.6818 887.648 76.9242 889.557 75.4091C891.466 73.8636 892.936 71.697 893.966 68.9091C894.996 66.1212 895.511 62.8485 895.511 59.0909C895.511 55.2727 894.996 51.9848 893.966 49.2273C892.966 46.4697 891.496 44.3485 889.557 42.8636C887.648 41.3788 885.345 40.6364 882.648 40.6364C879.89 40.6364 877.557 41.3939 875.648 42.9091C873.739 44.4242 872.284 46.5606 871.284 49.3182C870.314 52.0758 869.83 55.3333 869.83 59.0909C869.83 62.8485 870.33 66.1212 871.33 68.9091C872.33 71.697 873.769 73.8636 875.648 75.4091C877.557 76.9242 879.89 77.6818 882.648 77.6818ZM963.886 95.3182C956.553 95.3182 950.25 93.8182 944.977 90.8182C939.735 87.7879 935.689 83.5758 932.841 78.1818C930.023 72.7576 928.614 66.4697 928.614 59.3182C928.614 52.1364 930.023 45.8485 932.841 40.4545C935.689 35.0303 939.735 30.8182 944.977 27.8182C950.25 24.7879 956.553 23.2727 963.886 23.2727C971.22 23.2727 977.508 24.7879 982.75 27.8182C988.023 30.8182 992.068 35.0303 994.886 40.4545C997.735 45.8485 999.159 52.1364 999.159 59.3182C999.159 66.4697 997.735 72.7576 994.886 78.1818C992.068 83.5758 988.023 87.7879 982.75 90.8182C977.508 93.8182 971.22 95.3182 963.886 95.3182ZM964.023 78.5455C966.689 78.5455 968.947 77.7273 970.795 76.0909C972.644 74.4545 974.053 72.1818 975.023 69.2727C976.023 66.3636 976.523 63 976.523 59.1818C976.523 55.303 976.023 51.9091 975.023 49C974.053 46.0909 972.644 43.8182 970.795 42.1818C968.947 40.5455 966.689 39.7273 964.023 39.7273C961.265 39.7273 958.932 40.5455 957.023 42.1818C955.144 43.8182 953.705 46.0909 952.705 49C951.735 51.9091 951.25 55.303 951.25 59.1818C951.25 63 951.735 66.3636 952.705 69.2727C953.705 72.1818 955.144 74.4545 957.023 76.0909C958.932 77.7273 961.265 78.5455 964.023 78.5455Z" fill="#ffffff"/>
</svg>
