<svg width="416" height="331" viewBox="0 0 416 331" fill="none" xmlns="http://www.w3.org/2000/svg">
<g clip-path="url(#clip0_85_623)">
<path d="M132 326.641H283.612L279.878 330.66H134.614L132 326.641Z" fill="#FFD6A6"/>
<path d="M149.925 276H265.688L283.612 325.837H132L149.925 276Z" fill="#FFD6A6"/>
<path d="M193.899 305.742H222.003L224.61 320.21H191.002L193.899 305.742Z" fill="#F10000"/>
<path d="M143.986 299.311H271.626L272.409 300.115H143.203L143.986 299.311Z" fill="#F10000"/>
<path d="M393 0H23C10.2975 0 0 10.2975 0 23V252.713C0 265.416 10.2975 275.713 23 275.713H393C405.703 275.713 416 265.416 416 252.713V23C416 10.2975 405.703 0 393 0Z" fill="#FFD6A6"/>
<path d="M149.5 265.5H247.5V268.5H149.5V265.5Z" fill="#F10000" stroke="#9B9B9B"/>
<path d="M394.5 267C394.5 268.835 392.595 270.5 390 270.5C387.405 270.5 385.5 268.835 385.5 267C385.5 265.165 387.405 263.5 390 263.5C392.595 263.5 394.5 265.165 394.5 267Z" fill="#F10000" stroke="#9B9B9B"/>
<rect x="10" y="11" width="395" height="242" rx="16" fill="#F10000"/>
</g>
<defs>
<clipPath id="clip0_85_623">
<rect width="416" height="331" fill="white"/>
</clipPath>
</defs>
</svg>
